<svg width="48" height="48" viewBox="0 0 48 48" xmlns="http://www.w3.org/2000/svg">
  <!-- Background Circle -->
  <circle cx="24" cy="24" r="24" fill="#E6F0FA"/>
  
  <!-- Globe -->
  <g transform="translate(12 12) scale(0.5)">
    <circle cx="24" cy="24" r="20" fill="#4A90E2"/>
    <!-- Simplified Continents -->
    <path d="M24 4a20 20 0 0 1 20 20 20 20 0 0 1-20 20 20 20 0 0 1-20-20A20 20 0 0 1 24 4m0 2a18 18 0 0 0-18 18 18 18 0 0 0 18 18 18 18 0 0 0 18-18 18 18 0 0 0-18-18zm-2 6c2 0 4 1 5 3l-2 2c-1-1-2-1-3-1s-2 1-3 2l-2-2c1-2 3-4 5-4zm-8 8c1 0 2 1 3 2l-2 2c-1-1-2-1-3-1s-2 1-3 2l-2-2c1-2 3-3 5-3zm16 0c2 0 4 1 5 3l-2 2c-1-1-2-1-3-1s-2 1-3 2l-2-2c1-2 3-4 5-4zm-8 8c1 0 2 1 3 2l-2 2c-1-1-2-1-3-1s-2 1-3 2l-2-2c1-2 3-3 5-3z" fill="#FFFFFF"/>
    <!-- Grid Lines -->
    <path d="M24 4v40M4 24h40" stroke="#A3BFFA" stroke-width="1"/>
  </g>
  
  <!-- Arrows (Translation Symbol) -->
  <g transform="translate(24 24)">
    <path d="M0 -16 L-4 -12 L0 -16 L4 -12" fill="none" stroke="#FFFFFF" stroke-width="2" transform="rotate(45)"/>
    <path d="M0 16 L-4 12 L0 16 L4 12" fill="none" stroke="#FFFFFF" stroke-width="2" transform="rotate(225)"/>
    <path d="M0 -16 L-4 -12 L0 -16 L4 -12" fill="none" stroke="#FFFFFF" stroke-width="2" transform="rotate(135)"/>
    <path d="M0 16 L-4 12 L0 16 L4 12" fill="none" stroke="#FFFFFF" stroke-width="2" transform="rotate(315)"/>
    <!-- Circular Path for Arrows -->
    <circle cx="0" cy="0" r="16" fill="none" stroke="#FFFFFF" stroke-width="2" stroke-opacity="0.5"/>
  </g>
</svg>